{
  "accessors": [
    {
      "bufferView": 2,
      "componentType": 5126,
      "count": 65532,
      "max": [1.8590960502624512, 3.5168230533599854, 11.419278144836426],
      "min": [-2.6860249042510986, -2.3458549976348877, 3.3023529052734375],
      "type": "VEC3"
    },
    {
      "bufferView": 2,
      "byteOffset": 786384,
      "componentType": 5126,
      "count": 65532,
      "max": [0.99996674060821533, 0.9990764856338501, 0.99015861749649048],
      "min": [-0.99999785423278809, -0.99979865550994873, -0.99663501977920532],
      "type": "VEC3"
    },
    {
      "bufferView": 1,
      "componentType": 5126,
      "count": 65532,
      "max": [0.99823498725891113, 0.99913501739501953],
      "min": [0.00060600001597777009, 0.0019509999547153711],
      "type": "VEC2"
    },
    {
      "bufferView": 0,
      "componentType": 5125,
      "count": 322569,
      "max": [65531],
      "min": [0],
      "type": "SCALAR"
    },
    {
      "bufferView": 2,
      "byteOffset": 1572768,
      "componentType": 5126,
      "count": 65532,
      "max": [2.1746189594268799, 3.2101490497589111, 11.254210472106934],
      "min": [-2.6458480358123779, -2.4088380336761475, 3.2743599414825439],
      "type": "VEC3"
    },
    {
      "bufferView": 2,
      "byteOffset": 2359152,
      "componentType": 5126,
      "count": 65532,
      "max": [0.99999302625656128, 0.9990764856338501, 0.99987661838531494],
      "min": [-0.99994874000549316, -0.99998301267623901, -0.99936246871948242],
      "type": "VEC3"
    },
    {
      "bufferView": 1,
      "byteOffset": 524256,
      "componentType": 5126,
      "count": 65532,
      "max": [0.99698597192764282, 0.99941498041152954],
      "min": [0.000838999985717237, 0.020391000434756279],
      "type": "VEC2"
    },
    {
      "bufferView": 0,
      "byteOffset": 1290276,
      "componentType": 5125,
      "count": 308388,
      "max": [65531],
      "min": [0],
      "type": "SCALAR"
    },
    {
      "bufferView": 2,
      "byteOffset": 3145536,
      "componentType": 5126,
      "count": 65532,
      "max": [2.1959528923034668, 3.5151190757751465, 11.411713600158691],
      "min": [-2.6458480358123779, -2.4088380336761475, 3.2791769504547119],
      "type": "VEC3"
    },
    {
      "bufferView": 2,
      "byteOffset": 3931920,
      "componentType": 5126,
      "count": 65532,
      "max": [0.99999302625656128, 0.99532747268676758, 0.99832600355148315],
      "min": [-0.9999956488609314, -0.99998944997787476, -0.99963223934173584],
      "type": "VEC3"
    },
    {
      "bufferView": 1,
      "byteOffset": 1048512,
      "componentType": 5126,
      "count": 65532,
      "max": [0.99805700778961182, 0.999409019947052],
      "min": [0.00062700000125914812, 0.0019270000047981739],
      "type": "VEC2"
    },
    {
      "bufferView": 0,
      "byteOffset": 2523828,
      "componentType": 5125,
      "count": 213378,
      "max": [65531],
      "min": [0],
      "type": "SCALAR"
    },
    {
      "bufferView": 2,
      "byteOffset": 4718304,
      "componentType": 5126,
      "count": 3013,
      "max": [2.0537209510803223, 3.0819039344787598, 11.327051162719727],
      "min": [-3.3357059955596924, -2.3945760726928711, 3.2747409343719482],
      "type": "VEC3"
    },
    {
      "bufferView": 2,
      "byteOffset": 4754460,
      "componentType": 5126,
      "count": 3013,
      "max": [0.99920225143432617, 0.98546737432479858, 0.99967855215072632],
      "min": [-0.99954700469970703, -0.99902409315109253, -0.98855453729629517],
      "type": "VEC3"
    },
    {
      "bufferView": 1,
      "byteOffset": 1572768,
      "componentType": 5126,
      "count": 3013,
      "max": [0.99680697917938232, 0.99238502979278564],
      "min": [0.013561000116169453, 0.015698999166488647],
      "type": "VEC2"
    },
    {
      "bufferView": 0,
      "byteOffset": 3377340,
      "componentType": 5125,
      "count": 7248,
      "max": [3012],
      "min": [0],
      "type": "SCALAR"
    }
  ],
  "asset": {
    "extras": {
      "author": "solanatuberosa (https://sketchfab.com/solanatuberosa)",
      "license": "CC-BY-4.0 (http://creativecommons.org/licenses/by/4.0/)",
      "source": "https://sketchfab.com/3d-models/edward-b8c61986f0b7425b9d4f4029551e3ef3",
      "title": "Edward"
    },
    "generator": "Sketchfab-8.87.0",
    "version": "2.0"
  },
  "bufferViews": [
    {
      "buffer": 0,
      "byteLength": 3406332,
      "byteOffset": 0,
      "name": "floatBufferViews",
      "target": 34963
    },
    {
      "buffer": 0,
      "byteLength": 1596872,
      "byteOffset": 3406332,
      "byteStride": 8,
      "name": "floatBufferViews",
      "target": 34962
    },
    {
      "buffer": 0,
      "byteLength": 4790616,
      "byteOffset": 5003204,
      "byteStride": 12,
      "name": "floatBufferViews",
      "target": 34962
    }
  ],
  "buffers": [
    {
      "byteLength": 9793820,
      "uri": "scene.bin"
    }
  ],
  "images": [
    {
      "uri": "textures/Edward_baseColor.jpeg"
    }
  ],
  "materials": [
    {
      "doubleSided": false,
      "emissiveFactor": [0, 0, 0],
      "name": "Edward",
      "pbrMetallicRoughness": {
        "baseColorFactor": [1, 1, 1, 1],
        "baseColorTexture": {
          "index": 0,
          "texCoord": 0
        },
        "metallicFactor": 0.5,
        "roughnessFactor": 0.5
      }
    }
  ],
  "meshes": [
    {
      "primitives": [
        {
          "attributes": {
            "NORMAL": 1,
            "POSITION": 0,
            "TEXCOORD_0": 2
          },
          "indices": 3,
          "material": 0,
          "mode": 4
        }
      ]
    },
    {
      "primitives": [
        {
          "attributes": {
            "NORMAL": 5,
            "POSITION": 4,
            "TEXCOORD_0": 6
          },
          "indices": 7,
          "material": 0,
          "mode": 4
        }
      ]
    },
    {
      "primitives": [
        {
          "attributes": {
            "NORMAL": 9,
            "POSITION": 8,
            "TEXCOORD_0": 10
          },
          "indices": 11,
          "material": 0,
          "mode": 4
        }
      ]
    },
    {
      "primitives": [
        {
          "attributes": {
            "NORMAL": 13,
            "POSITION": 12,
            "TEXCOORD_0": 14
          },
          "indices": 15,
          "material": 0,
          "mode": 4
        }
      ]
    }
  ],
  "nodes": [
    {
      "children": [1],
      "name": "RootNode (gltf orientation matrix)",
      "rotation": [-0.70710678118654746, -0, -0, 0.70710678118654757]
    },
    {
      "children": [2],
      "name": "RootNode (model correction matrix)"
    },
    {
      "children": [3],
      "name": "root"
    },
    {
      "children": [4],
      "matrix": [
        1,
        0,
        0,
        0,
        0,
        2.2204460492503131e-16,
        1,
        0,
        0,
        -1,
        2.2204460492503131e-16,
        0,
        0,
        0,
        0,
        1
      ],
      "name": "GLTF_SceneRootNode"
    },
    {
      "children": [5],
      "name": "_1"
    },
    {
      "children": [6, 7, 8, 9],
      "name": "Group_Global_0"
    },
    {
      "mesh": 0,
      "name": ""
    },
    {
      "mesh": 1,
      "name": ""
    },
    {
      "mesh": 2,
      "name": ""
    },
    {
      "mesh": 3,
      "name": ""
    }
  ],
  "samplers": [
    {
      "magFilter": 9729,
      "minFilter": 9987,
      "wrapS": 10497,
      "wrapT": 10497
    }
  ],
  "scene": 0,
  "scenes": [
    {
      "name": "OSG_Scene",
      "nodes": [0]
    }
  ],
  "textures": [
    {
      "sampler": 0,
      "source": 0
    }
  ]
}
